<svg width="20" height="20" viewBox="0 0 20 20" fill="none" xmlns="http://www.w3.org/2000/svg">
<path fill-rule="evenodd" clip-rule="evenodd" d="M18.3333 6.59999V13.4083C18.3333 16.35 16.4408 18.3333 13.6166 18.3333H6.39163C3.56663 18.3333 1.66663 16.35 1.66663 13.4083V6.59999C1.66663 3.64999 3.56663 1.66666 6.39163 1.66666H13.6166C16.4408 1.66666 18.3333 3.64999 18.3333 6.59999ZM9.37496 8.10832V13.4C9.37496 13.75 9.65829 14.025 9.99996 14.025C10.35 14.025 10.625 13.75 10.625 13.4V8.10832L12.6833 10.175C12.8 10.2917 12.9666 10.3583 13.125 10.3583C13.2825 10.3583 13.4416 10.2917 13.5666 10.175C13.8083 9.93332 13.8083 9.53332 13.5666 9.29166L10.4416 6.14999C10.2083 5.91666 9.79163 5.91666 9.55829 6.14999L6.43329 9.29166C6.19163 9.53332 6.19163 9.93332 6.43329 10.175C6.68329 10.4167 7.07496 10.4167 7.32496 10.175L9.37496 8.10832Z" fill="url(#paint0_linear_99_325)"/>
<defs>
<linearGradient id="paint0_linear_99_325" x1="18.3333" y1="18.3333" x2="-1.49854" y2="12.5833" gradientUnits="userSpaceOnUse">
<stop stop-color="#12D18E"/>
<stop offset="1" stop-color="#71E3BB"/>
</linearGradient>
</defs>
</svg>
