<svg width="118" height="123" viewBox="0 0 118 123" fill="none" xmlns="http://www.w3.org/2000/svg">
<g id="Group">
<path id="Vector" fill-rule="evenodd" clip-rule="evenodd" d="M17.045 104.365H0.125L0.195 106.235C0.335 110.025 1.095 113.425 2.765 116.245C4.475 119.145 7.095 121.385 10.915 122.765L11.525 122.875H107.425L107.135 122.575C109.635 122.205 111.845 121.425 113.615 119.975C116.355 117.735 117.905 114.075 117.655 108.125L117.875 0.0246742H31.625C21.405 -0.425326 16.855 5.31467 17.055 14.3947H17.045V104.365ZM98.145 58.5247H86.825V56.7347C86.825 54.8247 86.695 53.5847 86.435 53.0047C86.175 52.4147 85.625 52.1147 84.755 52.1147C84.065 52.1147 83.545 52.3747 83.205 52.8747C82.865 53.3847 82.685 54.1447 82.685 55.1647C82.685 56.8547 83.035 58.0447 83.745 58.7147C84.435 59.3947 86.475 60.7047 89.855 62.6647C92.725 64.3247 94.695 65.5947 95.735 66.4747C96.775 67.3647 97.665 68.6047 98.375 70.2147C99.095 71.8347 99.455 73.8347 99.455 76.2447C99.455 80.0847 98.485 83.1047 96.545 85.3047C94.605 87.4947 91.675 88.8447 87.795 89.3647V93.4147H82.565V89.2547C79.535 88.9747 76.895 87.8547 74.635 85.9247C72.375 83.9947 71.245 80.6247 71.245 75.8147V73.6947H82.565V76.3347C82.565 79.2347 82.675 81.0347 82.915 81.7347C83.145 82.4347 83.715 82.7847 84.605 82.7847C85.375 82.7847 85.945 82.5347 86.315 82.0547C86.685 81.5647 86.875 80.8347 86.875 79.8747C86.875 77.4547 86.695 75.7247 86.335 74.6847C85.985 73.6447 84.775 72.5047 82.695 71.2747C79.235 69.2047 76.895 67.6847 75.645 66.7147C74.405 65.7347 73.325 64.3747 72.425 62.6047C71.515 60.8447 71.065 58.8547 71.065 56.6247C71.065 53.4047 72.025 50.8747 73.935 49.0347C75.855 47.1947 78.725 46.0647 82.555 45.6347V42.1947H87.785V45.6447C91.285 46.0747 93.895 47.1847 95.635 48.9947C97.365 50.8047 98.245 53.3047 98.245 56.4847C98.255 56.9347 98.225 57.6147 98.145 58.5247ZM34.755 64.2747C33.765 64.2747 32.965 63.4647 32.965 62.4647C32.965 61.4647 33.765 60.6547 34.755 60.6547H54.005C54.995 60.6547 55.795 61.4647 55.795 62.4647C55.795 63.4647 54.995 64.2747 54.005 64.2747H34.755ZM34.755 27.3147C33.755 27.3147 32.945 26.5147 32.945 25.5147C32.945 24.5247 33.755 23.7147 34.755 23.7147H98.635C99.635 23.7147 100.445 24.5147 100.445 25.5147C100.445 26.5047 99.635 27.3147 98.635 27.3147H34.755ZM34.755 45.7947C33.755 45.7947 32.955 44.9847 32.955 43.9947C32.955 42.9947 33.765 42.1947 34.755 42.1947H64.285C65.285 42.1947 66.085 43.0047 66.085 43.9947C66.085 44.9847 65.275 45.7947 64.285 45.7947H34.755ZM97.345 114.185C97.675 115.915 98.345 117.615 99.395 119.275H11.825C9.035 118.205 7.115 116.535 5.865 114.425C4.795 112.605 4.185 110.425 3.925 107.985H97.475C97.035 110.075 96.955 112.145 97.345 114.185ZM103.905 119.255C102.205 117.365 101.255 115.455 100.885 113.505C100.475 111.355 100.765 109.095 101.535 106.725L102.305 104.365H20.655V14.3947H20.645C20.655 7.25467 23.515 3.04467 31.355 3.60467L31.555 3.61467H114.045V108.105L114.055 108.185C114.265 112.875 113.215 115.625 111.335 117.165C109.565 118.625 106.955 119.145 103.905 119.255Z" fill="black"/>
</g>
</svg>
