<svg width="45" height="45" viewBox="0 0 45 45" fill="none" xmlns="http://www.w3.org/2000/svg">
<mask id="mask0_68_1991" style="mask-type:luminance" maskUnits="userSpaceOnUse" x="7" y="27" width="31" height="15">
<path fill-rule="evenodd" clip-rule="evenodd" d="M7.5 27.1802H37.1998V41.0064H7.5V27.1802Z" fill="white"/>
</mask>
<g mask="url(#mask0_68_1991)">
<path fill-rule="evenodd" clip-rule="evenodd" d="M22.3516 29.9927C14.3623 29.9927 10.3123 31.3652 10.3123 34.0746C10.3123 36.8083 14.3623 38.1939 22.3516 38.1939C30.3391 38.1939 34.3873 36.8214 34.3873 34.1121C34.3873 31.3783 30.3391 29.9927 22.3516 29.9927ZM22.3516 41.0064C18.6785 41.0064 7.49976 41.0064 7.49976 34.0746C7.49976 27.8946 15.9766 27.1802 22.3516 27.1802C26.0248 27.1802 37.1998 27.1802 37.1998 34.1121C37.1998 40.2921 28.7248 41.0064 22.3516 41.0064Z" fill="#53DE22"/>
</g>
<mask id="mask1_68_1991" style="mask-type:luminance" maskUnits="userSpaceOnUse" x="12" y="3" width="21" height="21">
<path fill-rule="evenodd" clip-rule="evenodd" d="M12.3936 3.75018H32.3061V23.6601H12.3936V3.75018Z" fill="white"/>
</mask>
<g mask="url(#mask1_68_1991)">
<path fill-rule="evenodd" clip-rule="evenodd" d="M22.3517 6.42695C18.3374 6.42695 15.0711 9.69133 15.0711 13.7057C15.058 17.707 18.2999 20.9694 22.2974 20.9845L22.3517 22.3232V20.9845C26.3642 20.9845 29.6286 17.7182 29.6286 13.7057C29.6286 9.69133 26.3642 6.42695 22.3517 6.42695ZM22.3517 23.6601H22.2917C16.813 23.6432 12.3749 19.1751 12.3936 13.7001C12.3936 8.2157 16.8599 3.74945 22.3517 3.74945C27.8417 3.74945 32.3061 8.2157 32.3061 13.7057C32.3061 19.1957 27.8417 23.6601 22.3517 23.6601Z" fill="#53DE22"/>
</g>
</svg>
