<svg width="28" height="29" viewBox="0 0 28 29" fill="none" xmlns="http://www.w3.org/2000/svg">
<g id="Type=Logo Default, Component=Logo">
<g id="Vector">
<path d="M20.9075 3.24587C20.9075 3.73145 20.5139 4.12509 20.0283 4.12509C19.5427 4.12509 19.1491 3.73145 19.1491 3.24587C19.1491 2.76028 19.5427 2.36664 20.0283 2.36664C20.5139 2.36664 20.9075 2.76028 20.9075 3.24587Z" fill="white"/>
<path d="M18.0354 5.23878C18.0354 6.20995 17.2481 6.99723 16.2769 6.99723C15.3057 6.99723 14.5185 6.20995 14.5185 5.23878C14.5185 4.26761 15.3057 3.48033 16.2769 3.48033C17.2481 3.48033 18.0354 4.26761 18.0354 5.23878Z" fill="white"/>
<path fill-rule="evenodd" clip-rule="evenodd" d="M15.1584 9.44977C14.9594 9.38739 14.841 9.18144 14.8601 8.97376C14.8668 8.90196 14.8702 8.82922 14.8702 8.75569C14.8702 7.4608 13.8204 6.41108 12.5255 6.41108C11.2307 6.41108 10.1809 7.4608 10.1809 8.75569C10.1809 9.08511 9.99763 9.4111 9.68584 9.51744C6.22347 10.6984 3.73328 13.9789 3.73328 17.841C3.73328 22.6969 7.66971 26.6333 12.5255 26.6333C17.3814 26.6333 21.3178 22.6969 21.3178 17.841C21.3178 17.3037 21.7425 16.8444 22.2256 16.6092C23.0068 16.2289 23.5452 15.4273 23.5452 14.5C23.5452 13.2051 22.4955 12.1554 21.2006 12.1554C20.758 12.1554 20.3441 12.278 19.991 12.4911C19.8105 12.5999 19.5684 12.5727 19.4381 12.4071C19.3088 12.2429 19.3378 12.0039 19.4834 11.854C19.8932 11.4318 20.1455 10.8559 20.1455 10.2211C20.1455 8.92618 19.0958 7.87646 17.8009 7.87646C16.8724 7.87646 16.0699 8.41622 15.6902 9.19908C15.5938 9.39773 15.3691 9.51581 15.1584 9.44977ZM12.5255 23.1164C9.61204 23.1164 7.25018 20.7545 7.25018 17.841C7.25018 14.9275 9.61204 12.5657 12.5255 12.5657C15.439 12.5657 17.8009 14.9275 17.8009 17.841C17.8009 20.7545 15.439 23.1164 12.5255 23.1164Z" fill="white"/>
<path d="M20.5558 7.75923C21.2033 7.75923 21.7281 7.23437 21.7281 6.58693C21.7281 5.93948 21.2033 5.41462 20.5558 5.41462C19.9084 5.41462 19.3835 5.93948 19.3835 6.58693C19.3835 7.23437 19.9084 7.75923 20.5558 7.75923Z" fill="white"/>
<path d="M23.2521 6.23524C23.5758 6.23524 23.8383 5.97281 23.8383 5.64909C23.8383 5.32536 23.5758 5.06293 23.2521 5.06293C22.9284 5.06293 22.666 5.32536 22.666 5.64909C22.666 5.97281 22.9284 6.23524 23.2521 6.23524Z" fill="white"/>
<path d="M23.2521 2.95279C23.2521 3.11465 23.1209 3.24587 22.959 3.24587C22.7972 3.24587 22.666 3.11465 22.666 2.95279C22.666 2.79093 22.7972 2.65971 22.959 2.65971C23.1209 2.65971 23.2521 2.79093 23.2521 2.95279Z" fill="white"/>
<path d="M22.666 11.5106C23.4753 11.5106 24.1313 10.8545 24.1313 10.0452C24.1313 9.23591 23.4753 8.57984 22.666 8.57984C21.8567 8.57984 21.2006 9.23591 21.2006 10.0452C21.2006 10.8545 21.8567 11.5106 22.666 11.5106Z" fill="white"/>
</g>
</g>
</svg>
