<svg width="66" height="66" viewBox="0 0 66 66" fill="none" xmlns="http://www.w3.org/2000/svg">
<path d="M49.2822 6.47249C49.2822 7.61708 48.3543 8.54495 47.2097 8.54495C46.0651 8.54495 45.1372 7.61708 45.1372 6.47249C45.1372 5.3279 46.0651 4.40002 47.2097 4.40002C48.3543 4.40002 49.2822 5.3279 49.2822 6.47249Z" fill="#12D18E"/>
<path d="M42.5121 11.1701C42.5121 13.4593 40.6564 15.315 38.3672 15.315C36.078 15.315 34.2223 13.4593 34.2223 11.1701C34.2223 8.88089 36.078 7.02514 38.3672 7.02514C40.6564 7.02514 42.5121 8.88089 42.5121 11.1701Z" fill="#12D18E"/>
<path fill-rule="evenodd" clip-rule="evenodd" d="M35.7308 21.096C35.2617 20.9489 34.9825 20.4635 35.0277 19.974C35.0433 19.8047 35.0513 19.6332 35.0513 19.4599C35.0513 16.4077 32.5769 13.9334 29.5247 13.9334C26.4724 13.9334 23.9981 16.4077 23.9981 19.4599C23.9981 20.2364 23.566 21.0048 22.8311 21.2555C14.6698 24.0391 8.80005 31.7717 8.80005 40.8754C8.80005 52.3213 18.0788 61.6 29.5247 61.6C40.9706 61.6 50.2493 52.3213 50.2493 40.8754C50.2493 39.6088 51.2504 38.5263 52.3891 37.9719C54.2306 37.0753 55.4996 35.1859 55.4996 33C55.4996 29.9478 53.0252 27.4735 49.973 27.4735C48.9299 27.4735 47.9542 27.7625 47.1218 28.2648C46.6965 28.5214 46.1258 28.4572 45.8185 28.0669C45.5139 27.6799 45.5822 27.1165 45.9253 26.7631C46.8913 25.768 47.486 24.4105 47.486 22.914C47.486 19.8618 45.0117 17.3875 41.9595 17.3875C39.7708 17.3875 37.8793 18.6597 36.9841 20.5051C36.757 20.9733 36.2274 21.2516 35.7308 21.096ZM29.5247 53.3102C22.6571 53.3102 17.0899 47.7429 17.0899 40.8754C17.0899 34.0078 22.6571 28.4406 29.5247 28.4406C36.3922 28.4406 41.9595 34.0078 41.9595 40.8754C41.9595 47.7429 36.3922 53.3102 29.5247 53.3102Z" fill="#12D18E"/>
<path d="M48.4532 17.1111C49.9793 17.1111 51.2165 15.874 51.2165 14.3478C51.2165 12.8217 49.9793 11.5846 48.4532 11.5846C46.9271 11.5846 45.6899 12.8217 45.6899 14.3478C45.6899 15.874 46.9271 17.1111 48.4532 17.1111Z" fill="#12D18E"/>
<path d="M54.8087 13.5189C55.5718 13.5189 56.1904 12.9003 56.1904 12.1372C56.1904 11.3742 55.5718 10.7556 54.8087 10.7556C54.0457 10.7556 53.4271 11.3742 53.4271 12.1372C53.4271 12.9003 54.0457 13.5189 54.8087 13.5189Z" fill="#12D18E"/>
<path d="M54.8087 5.78167C54.8087 6.1632 54.4995 6.47249 54.1179 6.47249C53.7364 6.47249 53.4271 6.1632 53.4271 5.78167C53.4271 5.40014 53.7364 5.09085 54.1179 5.09085C54.4995 5.09085 54.8087 5.40014 54.8087 5.78167Z" fill="#12D18E"/>
<path d="M53.4271 25.9536C55.3348 25.9536 56.8812 24.4072 56.8812 22.4995C56.8812 20.5919 55.3348 19.0454 53.4271 19.0454C51.5195 19.0454 49.973 20.5919 49.973 22.4995C49.973 24.4072 51.5195 25.9536 53.4271 25.9536Z" fill="#12D18E"/>
</svg>
